<svg xmlns="http://www.w3.org/2000/svg" width="124.086" height="30" viewBox="0 0 124.086 30">
  <g id="Audiozic_logo" data-name="Audiozic logo" transform="translate(-109.032 -94.183)">
    <g id="Audiozic" transform="translate(143.118 94.183)">
      <text id="Audiozic-2" data-name="Audiozic" transform="translate(0 13)" fill="#404040" font-size="12" font-family="Poppins-SemiBold, Poppins" font-weight="600" letter-spacing="0.05em"><tspan x="0" y="0">Rekomendasi</tspan><tspan x="0" y="13">Kamera</tspan></text>
    </g>
    <g id="Layer_1_copy" transform="translate(-16.368 -97.005)">
      <g id="Group_220" data-name="Group 220" transform="translate(125.4 193.997)">
        <path id="Path_2801" data-name="Path 2801" d="M154.658,200.067a2.389,2.389,0,0,0-2.368-2.4c-1.239-.025-2.474-.018-3.713,0a2.136,2.136,0,0,1-1.659-.685c-.646-.674-1.323-1.316-1.973-1.983a3.183,3.183,0,0,0-2.407-1c-1.676.014-3.353.011-5.029,0a3.15,3.15,0,0,0-2.379.988c-.674.688-1.366,1.355-2.036,2.043a2.035,2.035,0,0,1-1.535.632c-1.161-.007-2.322,0-3.483,0a2.436,2.436,0,0,0-2.64,2.026c0,.018-.021.028-.035.046V216.3c.035.106.071.212.1.321a2.414,2.414,0,0,0,2.231,1.743c.1,0,.191.007.286.007q10.6,0,21.208,0A1.879,1.879,0,0,1,148.7,218q-2.043-2.038-4.083-4.083a1.091,1.091,0,0,1-.109-.152c-.508.265-.953.54-1.429.738a7.68,7.68,0,1,1,.6-13.835,7.582,7.582,0,0,1,2.852,2.647,7.64,7.64,0,0,1,.145,8.015.239.239,0,0,0,.042.356c1.323,1.313,2.633,2.636,3.956,3.946a2.18,2.18,0,0,1,.713,1.161v.371a1.641,1.641,0,0,1-.5.946,1.8,1.8,0,0,1-.406.268h1.556A2.474,2.474,0,0,0,154.3,217.2a2.281,2.281,0,0,0,.353-1.246Q154.665,208.006,154.658,200.067Zm-4.881,3.674a1.212,1.212,0,1,1,1.228-1.2A1.217,1.217,0,0,1,149.777,203.741Z" transform="translate(-125.4 -193.997)" fill="#404040"/>
        <path id="Path_2802" data-name="Path 2802" d="M394.484,423.4a5.386,5.386,0,1,0,5.393,5.386A5.4,5.4,0,0,0,394.484,423.4Zm.226,9.536a4.332,4.332,0,0,1-3.988-6.028c-.007.1-.011.2-.011.311a5.428,5.428,0,0,0,5.428,5.428h.138A4.366,4.366,0,0,1,394.71,432.935Z" transform="translate(-379.792 -415.303)" fill="#404040"/>
      </g>
    </g>
  </g>
</svg>
