<svg xmlns="http://www.w3.org/2000/svg" width="67.381" height="14" viewBox="0 0 67.381 14">
  <g id="Group_224" data-name="Group 224" transform="translate(0)">
    <path id="Path_2804" data-name="Path 2804" d="M8.4,24.138a6.2,6.2,0,0,0,5.26,2.954,6.463,6.463,0,0,0,5.047-2.809h0l.228.746h0a9.025,9.025,0,0,1-7.209,3.136A8.966,8.966,0,0,1,3.891,24.13a5.9,5.9,0,0,1-.807-2.961c0-3.86,3.867-7,8.641-7A8.9,8.9,0,0,1,19.231,17.7h0l-5.656,3.4L16.8,16.144h0a6.311,6.311,0,0,0-3.228-1.127,6.1,6.1,0,0,0-6.037,6.075,5.79,5.79,0,0,0,.86,3.045Z" transform="translate(-3.084 -14.172)" fill="#262626" fill-rule="evenodd"/>
    <path id="Path_2805" data-name="Path 2805" d="M13.97,22.788a2.589,2.589,0,0,0-.023.343,2.276,2.276,0,1,0,4.552,0,2.59,2.59,0,0,0-.023-.343,2.28,2.28,0,0,0-4.507,0Zm8.443-.008,1.134,3.814H19.58L18.8,23.983h0a4.508,4.508,0,0,1-4.377,2.611c-2.5,0-4.537-1.583-4.537-3.532,0-.091.008-.183.015-.274.175-1.819,2.139-3.258,4.522-3.258a5.17,5.17,0,0,1,3.4,1.2h0l-1.081-3.616H12.2a30.867,30.867,0,0,1,4.119-1.675c3.357-1.226,4.423,1.675,4.423,1.675h0l1.675,5.672Z" transform="translate(6.486 -12.823)" fill="#262626" fill-rule="evenodd"/>
    <path id="Path_2806" data-name="Path 2806" d="M27.721,22.786V26.6h-4.08V18.226h0a1.12,1.12,0,0,0-2.162-.411h0v8.778h-4V17.1H15.137s3.251-1.972,4.377-1.972a1.979,1.979,0,0,1,1.956,1.865c1.576-.845,3.129-1.865,4.2-1.865a2.04,2.04,0,0,1,2.04,1.987h0v5.672Z" transform="translate(13.868 -12.829)" fill="#262626" fill-rule="evenodd"/>
    <path id="Path_2807" data-name="Path 2807" d="M25.885,22.817l.571,1.88h0a1.469,1.469,0,0,0,1.484,1.446,1.5,1.5,0,0,0,1.5-1.5,1.349,1.349,0,0,0-.008-.175h0l-.48-1.652-1.7-5.8h0a1.5,1.5,0,0,0-1.492-1.332,1.74,1.74,0,0,0-1.591,1.454h0l1.713,5.679Zm6.5.008a5.916,5.916,0,1,1,.282-1.842,5.721,5.721,0,0,1-.282,1.842Z" transform="translate(21.992 -12.86)" fill="#262626" fill-rule="evenodd"/>
    <path id="Path_2808" data-name="Path 2808" d="M32.139,22.782V26.6h-4V17.1H25.9s3.152-1.972,4.286-1.972A1.979,1.979,0,0,1,32.139,17c1.576-.845,3.129-1.865,4.2-1.865a2.04,2.04,0,0,1,2.04,1.987h0V26.6H34.3V18.222h0a1.12,1.12,0,0,0-2.162-.411h0v4.971Z" transform="translate(29 -12.824)" fill="#262626" fill-rule="evenodd"/>
  </g>
</svg>
