<?xml version="1.0" encoding="utf-8"?>
<!-- Generator: Adobe Illustrator 25.2.3, SVG Export Plug-In . SVG Version: 6.00 Build 0)  -->
<svg version="1.1" xmlns="http://www.w3.org/2000/svg" xmlns:xlink="http://www.w3.org/1999/xlink" x="0px" y="0px"
	 viewBox="0 0 1080 1080" style="enable-background:new 0 0 1080 1080;" xml:space="preserve">
<style type="text/css">
	.st0{fill:url(#SVGID_1_);}
	.st1{display:none;fill:#FFFFFF;}
	.st2{fill:#F7F7F7;}
	.st3{fill:url(#SVGID_2_);}
	.st4{fill:#333333;}
	.st5{fill:#595959;}
	.st6{fill:#231F20;}
</style>
<g id="Layer_2">
	<linearGradient id="SVGID_1_" gradientUnits="userSpaceOnUse" x1="53.3001" y1="-18.1649" x2="1036.842" y2="1109.7963">
		<stop  offset="0" style="stop-color:#FFFFFF"/>
		<stop  offset="0.8902" style="stop-color:#C9C9C9"/>
	</linearGradient>
	<rect x="-7.8" y="-9" class="st0" width="1095.5" height="1098"/>
	<rect x="-7.8" y="-9" class="st1" width="1095.5" height="1098"/>
	<path class="st2" d="M-88.8,1186.5l417.1-503.7c-35.8-197.6,52.4-313.5,279.9-338l440.7-532.2L2-262.6L-88.8,1186.5z"/>
</g>
<g id="Layer_1">
	<g>
		<g>
			<g id="Path_2801_8_">
				
					<image style="overflow:visible;opacity:0.5;" width="3077" height="2620" xlink:href="C623AD6A.png"  transform="matrix(0.24 0 0 0.24 198.72 253.68)">
				</image>
				<g>
					<linearGradient id="SVGID_2_" gradientUnits="userSpaceOnUse" x1="979.5613" y1="1090.1542" x2="55.636" y2="19.9638">
						<stop  offset="0.1648" style="stop-color:#404040"/>
						<stop  offset="0.4869" style="stop-color:#666666"/>
					</linearGradient>
					<path class="st3" d="M869.1,402.3c0.1-29.6-23.7-53.7-53.3-54c-27.9-0.6-55.7-0.4-83.6,0c-14.1,0.6-27.8-5-37.3-15.4
						c-14.5-15.2-29.8-29.6-44.4-44.6c-14-14.9-33.7-23.1-54.2-22.5c-37.7,0.3-75.4,0.2-113.2,0c-20.2-0.6-39.7,7.5-53.5,22.2
						c-15.2,15.5-30.7,30.5-45.8,46c-9,9.4-21.5,14.6-34.5,14.2c-26.1-0.2-52.3,0-78.4,0c-28.7-2.8-54.7,17.1-59.4,45.6
						c0,0.4-0.5,0.6-0.8,1v372.8c0.8,2.4,1.6,4.8,2.3,7.2c6.5,22.5,26.8,38.4,50.2,39.2c2.3,0,4.3,0.2,6.4,0.2
						c159,0,318.1,0,477.2,0c-4.4-2.1-8.4-4.9-11.8-8.3c-30.6-30.6-61.3-61.2-91.9-91.9c-0.9-1.1-1.7-2.2-2.5-3.4
						c-11.4,6-21.4,12.2-32.2,16.6c-87.8,37.5-189.3-3.2-226.8-91c-37.5-87.8,3.2-189.3,91-226.8c48.2-20.6,103.2-18.2,149.4,6.5
						c26.2,13.9,48.3,34.5,64.2,59.6c35.1,54.7,36.3,124.4,3.3,180.4c-2,2.2-1.8,5.6,0.4,7.6c0.2,0.1,0.3,0.3,0.5,0.4
						c29.8,29.5,59.2,59.3,89,88.8c8,6.8,13.6,15.9,16,26.1v8.3c-1.3,8.2-5.2,15.6-11.3,21.3c-2.8,2.4-5.8,4.4-9.1,6h35
						c20.6,1.3,40.2-8.9,50.9-26.5c5.3-8.4,8.1-18.1,7.9-28C869.2,640.6,869.2,521.4,869.1,402.3z M759.3,485
						c-15.1-0.2-27.1-12.6-26.9-27.6c0.2-15.1,12.6-27.1,27.6-26.9c15,0.2,27.1,12.5,26.9,27.5C786.7,473.1,774.4,485.1,759.3,485
						L759.3,485z"/>
					<g>
						<path class="st4" d="M598.4,265.8c19.7,0,38.6,8.1,52.1,22.5c14.6,15,29.9,29.5,44.4,44.6c9.1,9.9,21.9,15.5,35.3,15.5
							c0.7,0,1.3,0,2,0c15.1-0.2,30.1-0.4,45.1-0.4c12.8,0,25.6,0.1,38.4,0.4c29.6,0.3,53.4,24.4,53.3,54
							c0.1,119.1,0.1,238.3-0.1,357.5c0.1,9.9-2.6,19.7-7.9,28c-10.2,16.6-28.2,26.6-47.5,26.6c-1.1,0-2.3,0-3.4-0.1h-35
							c3.3-1.6,6.4-3.6,9.1-6c6-5.6,10-13.1,11.3-21.3v-8.3c-2.4-10.2-8-19.4-16-26.1c-29.8-29.5-59.2-59.2-89-88.8
							c-0.2-0.1-0.4-0.3-0.5-0.4c-2.2-2-2.4-5.4-0.4-7.6c33.1-55.9,31.8-125.7-3.3-180.4c-15.8-25.1-38-45.6-64.2-59.6
							c-25.4-13.6-53.4-20.4-81.5-20.4c-23.1,0-46.2,4.6-67.9,13.9c-87.8,37.5-128.5,139.1-91,226.8c28.1,65.6,91.9,104.9,159,104.9
							c22.7,0,45.7-4.5,67.9-14c10.7-4.5,20.7-10.6,32.2-16.6c0.7,1.2,1.5,2.4,2.5,3.4c30.6,30.7,61.2,61.3,91.9,91.9
							c3.4,3.4,7.4,6.3,11.8,8.3c-79.6,0-159.1,0-238.7,0s-159.1,0-238.6,0c-2.1,0-4.2-0.2-6.4-0.2c-23.4-0.9-43.7-16.7-50.2-39.2
							c-0.7-2.5-1.5-4.8-2.3-7.2V394.8c0.3-0.4,0.8-0.6,0.8-1c4.4-26.7,27.5-45.9,54-45.9c1.8,0,3.6,0.1,5.4,0.3
							c17.4,0,34.8-0.1,52.2-0.1c8.7,0,17.4,0,26.1,0.1c0.5,0,0.9,0,1.4,0c12.5,0,24.5-5.1,33.2-14.2c15.1-15.5,30.6-30.5,45.8-46
							c13.4-14.2,32.1-22.3,51.6-22.3c0.7,0,1.3,0,2,0c20,0.1,40,0.2,59.9,0.2c17.7,0,35.5-0.1,53.2-0.2
							C597.1,265.8,597.8,265.8,598.4,265.8 M759.6,485c15,0,27.2-12,27.4-27c0.1-15-11.9-27.3-26.9-27.5c-0.1,0-0.2,0-0.4,0
							c-14.9,0-27.1,12-27.3,26.9c-0.2,15.1,11.8,27.4,26.9,27.6h0C759.4,485,759.5,485,759.6,485 M598.4,255.8L598.4,255.8
							c-0.7,0-1.5,0-2.2,0c-17,0.1-34.3,0.2-53,0.2c-18.6,0-38.1-0.1-59.8-0.2c-0.7,0-1.4,0-2.1,0c-22.1,0-43.6,9.2-58.8,25.3
							c-7.1,7.3-14.5,14.6-21.7,21.7c-7.9,7.9-16.1,16-24.1,24.2c0,0-0.1,0.1-0.1,0.1c-6.7,7.1-16.2,11.1-25.9,11.1
							c-0.4,0-0.7,0-1.1,0c-0.1,0-0.2,0-0.2,0c-7.8,0-16.4-0.1-26.2-0.1c-8.7,0-17.4,0-26.1,0c-8.5,0-17.1,0-25.6,0
							c-1.9-0.2-3.9-0.3-5.8-0.3c-15.2,0-30.1,5.4-41.7,15.3c-11.1,9.4-18.8,22.3-21.7,36.6c-0.9,1.5-1.4,3.3-1.4,5v372.8
							c0,1.1,0.2,2.1,0.5,3.1l0.3,0.8c0.7,2,1.3,4,1.8,5.9c0,0.1,0,0.1,0.1,0.2c7.7,26.8,31.6,45.4,59.4,46.4c0.1,0,0.2,0,0.4,0
							c1,0,1.9,0,2.9,0.1c1.1,0,2.3,0.1,3.5,0.1l238.6,0l238.7,0c4.7,0,8.7-3.2,9.8-7.8c1-4.6-1.3-9.2-5.5-11.2
							c-3.4-1.6-6.4-3.7-9-6.4c-30.4-30.3-61.2-61.1-91.6-91.6c-0.5-0.6-0.9-1.2-1.2-1.8c-1.9-3.1-5.2-4.9-8.6-4.9
							c-1.6,0-3.1,0.4-4.6,1.1c-3.8,2-7.4,4-10.9,5.9c-7.1,3.9-13.7,7.6-20.5,10.4c0,0-0.1,0-0.1,0c-20.4,8.7-41.9,13.2-63.9,13.2
							c-65.3,0-124.1-38.8-149.8-98.8c-17.1-40-17.6-84.2-1.4-124.6c16.2-40.4,47.1-72,87.1-89.1c20.3-8.7,41.9-13.1,64-13.1
							c26.7,0,53.2,6.6,76.7,19.2c24.6,13.1,45.5,32.5,60.4,56.1c0,0,0,0,0,0.1c33.1,51.6,34.4,116.4,3.4,169.2
							c-4.8,6.3-4,15.4,2,20.8c0.2,0.2,0.4,0.4,0.6,0.5c13.8,13.7,27.8,27.7,41.3,41.2c15.5,15.5,31.5,31.5,47.3,47.1
							c0.2,0.2,0.4,0.4,0.6,0.5c6.1,5.2,10.4,12,12.5,19.7v6.3c-1,5.6-3.8,10.8-8,14.7c-2,1.8-4.3,3.3-6.8,4.4
							c-4.2,2-6.5,6.7-5.4,11.2c1,4.6,5.1,7.8,9.8,7.8h34.7c1.2,0.1,2.5,0.1,3.7,0.1c11.2,0,22.3-2.9,32-8.4
							c9.8-5.5,18.1-13.4,23.9-23c6.3-10,9.6-21.5,9.5-33.4c0.2-118.6,0.2-238.8,0.1-357.4c0.1-17-6.5-33-18.4-45
							c-11.9-12.1-27.8-18.8-44.8-19c-12.2-0.2-24.9-0.4-38.6-0.4c-13.7,0-28,0.1-45.2,0.4c-0.1,0-0.2,0-0.3,0c-0.5,0-1.1,0-1.6,0
							c-10.6,0-20.8-4.5-28-12.2c0,0-0.1-0.1-0.1-0.1c-8.1-8.4-16.4-16.7-24.5-24.7c-6.6-6.5-13.4-13.2-19.9-19.9
							C642.4,265.1,620.8,255.8,598.4,255.8L598.4,255.8z M759.6,475l-0.2,0c-4.6-0.1-8.9-1.9-12.1-5.2c-3.2-3.3-5-7.7-4.9-12.3
							c0.1-9.4,7.9-17,17.3-17l0.2,0c9.5,0.1,17.1,7.9,17,17.4C776.8,467.3,769,475,759.6,475L759.6,475z"/>
					</g>
				</g>
			</g>
			<g id="Path_2802_8_">
				<path class="st5" d="M541.4,447.9c-66.9,0.1-121.1,54.4-121,121.4c0.1,66.9,54.4,121.1,121.4,121c66.9-0.1,121-54.3,121-121.2
					C662.5,502.2,608.3,448,541.4,447.9z M546.5,662.5c-53.8,0-97.5-43.6-97.5-97.4c0-13.1,2.6-26.1,7.8-38.2
					c-0.2,2.3-0.2,4.5-0.2,7c0,67.5,54.7,122.1,122.1,122.1c0,0,0,0,0,0h3.1C570.5,660.3,558.5,662.5,546.5,662.5L546.5,662.5z"/>
				<g>
					<path class="st6" d="M541.4,447.9c66.9,0.1,121.2,54.3,121.4,121.2c0,66.9-54.2,121.1-121,121.2c-0.1,0-0.1,0-0.2,0
						c-66.9,0-121.1-54.2-121.2-121C420.2,502.4,474.4,448,541.4,447.9 M456.7,526.9c-5.1,12.1-7.8,25.1-7.8,38.2
						c0,53.8,43.7,97.4,97.5,97.4c0,0,0,0,0,0l0,0c0.1,0,0.1,0,0.2,0c12,0,23.9-2.2,35.1-6.5h-3.1c0,0,0,0,0,0
						c-67.5,0-122.1-54.7-122.1-122.1C456.5,531.4,456.6,529.1,456.7,526.9 M541.4,437.9C541.4,437.9,541.4,437.9,541.4,437.9
						c-35.1,0-68,13.7-92.7,38.5c-24.7,24.8-38.4,57.8-38.3,92.8c0,35,13.7,67.9,38.5,92.7c24.8,24.7,57.7,38.4,92.7,38.4l0.2,0
						c35,0,67.9-13.7,92.7-38.5c24.7-24.8,38.4-57.7,38.4-92.7c-0.1-35.1-13.8-68-38.6-92.7C609.4,451.6,576.4,438,541.4,437.9
						L541.4,437.9z M488.8,630.9c-3.6-3.2-7-6.6-10-10.3c2,2.3,4.1,4.6,6.3,6.8C486.4,628.5,487.6,629.7,488.8,630.9L488.8,630.9z"
						/>
				</g>
			</g>
		</g>
	</g>
</g>
</svg>
