<svg xmlns="http://www.w3.org/2000/svg" width="15.004" height="14.997" viewBox="0 0 15.004 14.997">
  <path id="Path_2822" data-name="Path 2822" d="M20.143,12.172v.879c-.024.192-.04.386-.069.578a7.254,7.254,0,0,1-1.755,3.877,7.324,7.324,0,0,1-6.693,2.534,7.087,7.087,0,0,1-4.469-2.316A7.313,7.313,0,0,1,5.277,11.2,7.2,7.2,0,0,1,7.61,7.049a7.313,7.313,0,0,1,3.751-1.826c.277-.047.559-.076.838-.114h.879c.043.009.085.019.128.026.289.04.583.062.869.118a7.485,7.485,0,0,1,5.951,6.082C20.076,11.613,20.1,11.892,20.143,12.172Zm-6.527,1.743h-.007c0-.677.017-1.357,0-2.034a.958.958,0,0,0-1.22-.86.974.974,0,0,0-.722,1.025c0,1.22,0,2.439,0,3.661,0,.1,0,.194.009.291a.975.975,0,0,0,1.94-.18C13.618,15.184,13.616,14.55,13.616,13.915ZM11.7,9.384a.876.876,0,0,0,.921.9.9.9,0,1,0,.021-1.8A.871.871,0,0,0,11.7,9.384Z" transform="translate(-5.139 -5.11)" fill="#b8b8b8"/>
</svg>
