<?xml version="1.0" encoding="utf-8"?>
<!-- Generator: Adobe Illustrator 25.2.3, SVG Export Plug-In . SVG Version: 6.00 Build 0)  -->
<svg version="1.1" id="Layer_1" xmlns="http://www.w3.org/2000/svg" xmlns:xlink="http://www.w3.org/1999/xlink" x="0px" y="0px"
	 viewBox="0 0 124.1 30" style="enable-background:new 0 0 124.1 30;" xml:space="preserve">
<style type="text/css">
	.st0{enable-background:new    ;}
	.st1{fill:#404040;}
</style>
<g id="Audiozic_logo" transform="translate(-109.032 -94.183)">
	<g id="Audiozic" transform="translate(143.118 94.183)">
		<g class="st0">
			<path class="st1" d="M5.1,13L3.3,9.7H2.5V13H0.8V4.6H4c0.6,0,1.2,0.1,1.7,0.3c0.5,0.2,0.8,0.5,1,0.9C6.9,6.3,7,6.7,7,7.2
				c0,0.6-0.2,1-0.5,1.5C6.2,9.1,5.7,9.4,5.1,9.6l2,3.4H5.1z M2.5,8.5h1.4c0.5,0,0.8-0.1,1-0.3c0.2-0.2,0.3-0.5,0.3-0.9
				c0-0.4-0.1-0.7-0.3-0.9C4.7,6.1,4.4,6,3.9,6H2.5V8.5z"/>
			<path class="st1" d="M15.3,10.2h-4.9c0,0.5,0.2,0.9,0.5,1.1c0.3,0.3,0.7,0.4,1.1,0.4c0.6,0,1.1-0.3,1.3-0.8h1.8
				c-0.2,0.6-0.6,1.2-1.1,1.6c-0.5,0.4-1.2,0.6-2,0.6c-0.6,0-1.2-0.1-1.7-0.4c-0.5-0.3-0.9-0.7-1.2-1.2C8.8,11,8.7,10.4,8.7,9.7
				c0-0.7,0.1-1.3,0.4-1.8c0.3-0.5,0.7-0.9,1.2-1.2s1.1-0.4,1.7-0.4c0.6,0,1.2,0.1,1.7,0.4c0.5,0.3,0.9,0.7,1.2,1.2
				c0.3,0.5,0.4,1.1,0.4,1.7C15.3,9.8,15.3,10,15.3,10.2z M13.6,9.1c0-0.4-0.2-0.8-0.5-1c-0.3-0.3-0.7-0.4-1.1-0.4
				c-0.4,0-0.8,0.1-1.1,0.4c-0.3,0.3-0.5,0.6-0.5,1H13.6z"/>
			<path class="st1" d="M21.1,13l-2.3-2.8V13h-1.7V4.1h1.7v5.1L21,6.4h2.2l-2.9,3.3l3,3.3H21.1z"/>
			<path class="st1" d="M26,12.7c-0.5-0.3-0.9-0.7-1.2-1.2c-0.3-0.5-0.4-1.1-0.4-1.8c0-0.7,0.2-1.3,0.5-1.8C25.1,7.4,25.5,7,26,6.7
				s1.1-0.4,1.7-0.4c0.6,0,1.2,0.1,1.7,0.4s0.9,0.7,1.2,1.2C31,8.4,31.2,9,31.2,9.7c0,0.7-0.2,1.3-0.5,1.8c-0.3,0.5-0.7,0.9-1.2,1.2
				c-0.5,0.3-1.1,0.4-1.8,0.4C27,13.1,26.5,13,26,12.7z M28.5,11.4c0.3-0.1,0.5-0.4,0.6-0.7s0.2-0.7,0.2-1.1c0-0.6-0.2-1.1-0.5-1.5
				c-0.3-0.3-0.7-0.5-1.2-0.5c-0.5,0-0.9,0.2-1.2,0.5C26.2,8.6,26,9,26,9.7s0.2,1.1,0.5,1.5c0.3,0.3,0.7,0.5,1.2,0.5
				C28,11.6,28.3,11.6,28.5,11.4z"/>
			<path class="st1" d="M43.2,7C43.7,7.5,44,8.2,44,9.1V13h-1.7V9.3c0-0.5-0.1-0.9-0.4-1.2c-0.3-0.3-0.6-0.4-1.1-0.4
				S40,7.9,39.7,8.1c-0.3,0.3-0.4,0.7-0.4,1.2V13h-1.7V9.3c0-0.5-0.1-0.9-0.4-1.2c-0.3-0.3-0.6-0.4-1.1-0.4c-0.5,0-0.8,0.1-1.1,0.4
				c-0.3,0.3-0.4,0.7-0.4,1.2V13H33V6.4h1.7v0.8c0.2-0.3,0.5-0.5,0.8-0.7s0.7-0.2,1.1-0.2c0.5,0,1,0.1,1.4,0.3s0.7,0.5,0.9,0.9
				c0.2-0.4,0.5-0.7,0.9-0.9c0.4-0.2,0.9-0.3,1.3-0.3C42.1,6.3,42.7,6.5,43.2,7z"/>
			<path class="st1" d="M52.3,10.2h-4.9c0,0.5,0.2,0.9,0.5,1.1c0.3,0.3,0.7,0.4,1.1,0.4c0.6,0,1.1-0.3,1.3-0.8h1.8
				c-0.2,0.6-0.6,1.2-1.1,1.6s-1.2,0.6-2,0.6c-0.6,0-1.2-0.1-1.7-0.4c-0.5-0.3-0.9-0.7-1.2-1.2c-0.3-0.5-0.4-1.1-0.4-1.8
				c0-0.7,0.1-1.3,0.4-1.8c0.3-0.5,0.7-0.9,1.2-1.2c0.5-0.3,1.1-0.4,1.7-0.4c0.6,0,1.2,0.1,1.7,0.4c0.5,0.3,0.9,0.7,1.2,1.2
				c0.3,0.5,0.4,1.1,0.4,1.7C52.3,9.8,52.3,10,52.3,10.2z M50.6,9.1c0-0.4-0.2-0.8-0.5-1c-0.3-0.3-0.7-0.4-1.1-0.4
				c-0.4,0-0.8,0.1-1,0.4c-0.3,0.3-0.5,0.6-0.5,1H50.6z"/>
			<path class="st1" d="M59.8,7c0.5,0.5,0.7,1.2,0.7,2.1V13h-1.7V9.3c0-0.5-0.1-0.9-0.4-1.2c-0.3-0.3-0.6-0.4-1.1-0.4
				c-0.5,0-0.8,0.1-1.1,0.4c-0.3,0.3-0.4,0.7-0.4,1.2V13h-1.7V6.4h1.7v0.8c0.2-0.3,0.5-0.5,0.9-0.7c0.3-0.2,0.7-0.2,1.1-0.2
				C58.6,6.3,59.3,6.5,59.8,7z"/>
			<path class="st1" d="M62.7,7.9c0.3-0.5,0.6-0.9,1.1-1.2c0.5-0.3,1-0.4,1.5-0.4c0.4,0,0.8,0.1,1.2,0.3c0.4,0.2,0.7,0.4,0.9,0.8
				V4.1h1.7V13h-1.7v-1c-0.2,0.3-0.5,0.6-0.9,0.8c-0.4,0.2-0.8,0.3-1.3,0.3c-0.6,0-1.1-0.1-1.5-0.4c-0.5-0.3-0.8-0.7-1.1-1.2
				c-0.3-0.5-0.4-1.1-0.4-1.8C62.3,9,62.4,8.4,62.7,7.9z M67.3,8.6c-0.2-0.3-0.4-0.5-0.6-0.7c-0.3-0.2-0.6-0.2-0.9-0.2
				s-0.6,0.1-0.9,0.2c-0.3,0.2-0.5,0.4-0.6,0.7S64,9.3,64,9.7c0,0.4,0.1,0.8,0.2,1s0.4,0.5,0.6,0.7c0.3,0.2,0.6,0.2,0.9,0.2
				c0.3,0,0.6-0.1,0.9-0.2c0.3-0.2,0.5-0.4,0.6-0.7c0.2-0.3,0.2-0.6,0.2-1S67.4,8.9,67.3,8.6z"/>
			<path class="st1" d="M71.4,7.9c0.3-0.5,0.6-0.9,1.1-1.2s1-0.4,1.5-0.4c0.5,0,0.9,0.1,1.3,0.3S76,7,76.2,7.3V6.4h1.7V13h-1.7v-1
				c-0.2,0.3-0.5,0.6-0.9,0.8s-0.8,0.3-1.3,0.3c-0.6,0-1.1-0.1-1.5-0.4s-0.8-0.7-1.1-1.2c-0.3-0.5-0.4-1.1-0.4-1.8
				C71,9,71.1,8.4,71.4,7.9z M76,8.6c-0.2-0.3-0.4-0.5-0.6-0.7c-0.3-0.2-0.6-0.2-0.9-0.2c-0.3,0-0.6,0.1-0.9,0.2
				c-0.3,0.2-0.5,0.4-0.6,0.7s-0.2,0.6-0.2,1c0,0.4,0.1,0.8,0.2,1s0.4,0.5,0.6,0.7c0.3,0.2,0.6,0.2,0.9,0.2c0.3,0,0.6-0.1,0.9-0.2
				c0.3-0.2,0.5-0.4,0.6-0.7c0.2-0.3,0.2-0.6,0.2-1S76.2,8.9,76,8.6z"/>
			<path class="st1" d="M81.3,12.8c-0.4-0.2-0.8-0.5-1-0.8s-0.4-0.7-0.4-1.1h1.7c0,0.3,0.2,0.5,0.4,0.6c0.2,0.2,0.5,0.3,0.8,0.3
				c0.3,0,0.6-0.1,0.8-0.2s0.3-0.3,0.3-0.5c0-0.2-0.1-0.4-0.3-0.5c-0.2-0.1-0.6-0.2-1-0.4c-0.5-0.1-0.9-0.2-1.2-0.4
				c-0.3-0.1-0.6-0.3-0.8-0.6C80.1,9,80,8.7,80,8.2c0-0.4,0.1-0.7,0.3-1c0.2-0.3,0.5-0.5,0.9-0.7c0.4-0.2,0.9-0.3,1.4-0.3
				c0.8,0,1.4,0.2,1.9,0.6c0.5,0.4,0.7,0.9,0.8,1.6h-1.6c0-0.3-0.1-0.5-0.3-0.6c-0.2-0.2-0.5-0.2-0.8-0.2c-0.3,0-0.5,0.1-0.7,0.2
				S81.6,8,81.6,8.2c0,0.2,0.1,0.4,0.3,0.5c0.2,0.1,0.6,0.2,1,0.4c0.5,0.1,0.9,0.2,1.2,0.4S84.7,9.8,85,10c0.2,0.3,0.3,0.6,0.4,1.1
				c0,0.4-0.1,0.7-0.3,1c-0.2,0.3-0.5,0.5-0.9,0.7c-0.4,0.2-0.9,0.3-1.4,0.3C82.2,13.1,81.7,13,81.3,12.8z"/>
			<path class="st1" d="M87.4,5.3c-0.2-0.2-0.3-0.4-0.3-0.7s0.1-0.5,0.3-0.7c0.2-0.2,0.4-0.3,0.7-0.3s0.5,0.1,0.7,0.3
				c0.2,0.2,0.3,0.4,0.3,0.7s-0.1,0.5-0.3,0.7c-0.2,0.2-0.4,0.3-0.7,0.3S87.6,5.5,87.4,5.3z M89,6.4V13h-1.7V6.4H89z"/>
		</g>
		<g class="st0">
			<path class="st1" d="M5.6,26l-3-3.7V26H0.8v-8.4h1.7v3.8l3-3.8h2l-3.5,4.2L7.7,26H5.6z"/>
			<path class="st1" d="M9.4,20.9c0.3-0.5,0.6-0.9,1.1-1.2s1-0.4,1.5-0.4c0.5,0,0.9,0.1,1.3,0.3s0.7,0.5,0.9,0.8v-0.9h1.7V26h-1.7
				v-1c-0.2,0.3-0.5,0.6-0.9,0.8s-0.8,0.3-1.3,0.3c-0.6,0-1.1-0.1-1.5-0.4S9.6,25,9.4,24.5C9.1,23.9,9,23.3,9,22.7
				C9,22,9.1,21.4,9.4,20.9z M13.9,21.6c-0.2-0.3-0.4-0.5-0.6-0.7s-0.6-0.2-0.9-0.2s-0.6,0.1-0.9,0.2c-0.3,0.2-0.5,0.4-0.6,0.7
				s-0.2,0.6-0.2,1c0,0.4,0.1,0.8,0.2,1s0.4,0.5,0.6,0.7c0.3,0.2,0.6,0.2,0.9,0.2c0.3,0,0.6-0.1,0.9-0.2c0.3-0.2,0.5-0.4,0.6-0.7
				c0.2-0.3,0.2-0.6,0.2-1S14.1,21.9,13.9,21.6z"/>
			<path class="st1" d="M28.3,20c0.5,0.5,0.8,1.2,0.8,2.1V26h-1.7v-3.7c0-0.5-0.1-0.9-0.4-1.2c-0.3-0.3-0.6-0.4-1.1-0.4
				c-0.5,0-0.8,0.1-1.1,0.4c-0.3,0.3-0.4,0.7-0.4,1.2V26h-1.7v-3.7c0-0.5-0.1-0.9-0.4-1.2c-0.3-0.3-0.6-0.4-1.1-0.4
				c-0.5,0-0.8,0.1-1.1,0.4c-0.3,0.3-0.4,0.7-0.4,1.2V26h-1.7v-6.6h1.7v0.8c0.2-0.3,0.5-0.5,0.8-0.7s0.7-0.2,1.1-0.2
				c0.5,0,1,0.1,1.4,0.3c0.4,0.2,0.7,0.5,0.9,0.9c0.2-0.4,0.5-0.7,0.9-0.9c0.4-0.2,0.9-0.3,1.3-0.3C27.2,19.3,27.8,19.5,28.3,20z"/>
			<path class="st1" d="M37.4,23.2h-4.9c0,0.5,0.2,0.9,0.5,1.1c0.3,0.3,0.7,0.4,1.1,0.4c0.6,0,1.1-0.3,1.3-0.8h1.8
				c-0.2,0.6-0.6,1.2-1.1,1.6s-1.2,0.6-2,0.6c-0.6,0-1.2-0.1-1.7-0.4c-0.5-0.3-0.9-0.7-1.2-1.2c-0.3-0.5-0.4-1.1-0.4-1.8
				c0-0.7,0.1-1.3,0.4-1.8c0.3-0.5,0.7-0.9,1.2-1.2s1.1-0.4,1.7-0.4c0.6,0,1.2,0.1,1.7,0.4c0.5,0.3,0.9,0.7,1.2,1.2
				c0.3,0.5,0.4,1.1,0.4,1.7C37.5,22.8,37.5,23,37.4,23.2z M35.7,22.1c0-0.4-0.2-0.8-0.5-1c-0.3-0.3-0.7-0.4-1.1-0.4
				c-0.4,0-0.8,0.1-1.1,0.4s-0.5,0.6-0.5,1H35.7z"/>
			<path class="st1" d="M41.8,19.6c0.3-0.2,0.7-0.3,1.2-0.3V21h-0.4c-0.5,0-0.9,0.1-1.2,0.4c-0.3,0.2-0.4,0.7-0.4,1.3V26h-1.7v-6.6
				H41v1C41.2,20,41.5,19.8,41.8,19.6z"/>
			<path class="st1" d="M44.7,20.9c0.3-0.5,0.6-0.9,1.1-1.2s1-0.4,1.5-0.4c0.5,0,0.9,0.1,1.3,0.3s0.7,0.5,0.9,0.8v-0.9h1.7V26h-1.7
				v-1c-0.2,0.3-0.5,0.6-0.9,0.8s-0.8,0.3-1.3,0.3c-0.6,0-1.1-0.1-1.5-0.4S45,25,44.7,24.5c-0.3-0.5-0.4-1.1-0.4-1.8
				C44.3,22,44.4,21.4,44.7,20.9z M49.3,21.6c-0.2-0.3-0.4-0.5-0.6-0.7c-0.3-0.2-0.6-0.2-0.9-0.2c-0.3,0-0.6,0.1-0.9,0.2
				c-0.3,0.2-0.5,0.4-0.6,0.7s-0.2,0.6-0.2,1c0,0.4,0.1,0.8,0.2,1s0.4,0.5,0.6,0.7c0.3,0.2,0.6,0.2,0.9,0.2c0.3,0,0.6-0.1,0.9-0.2
				c0.3-0.2,0.5-0.4,0.6-0.7c0.2-0.3,0.2-0.6,0.2-1S49.5,21.9,49.3,21.6z"/>
		</g>
	</g>
	<g id="Layer_1_copy" transform="translate(-16.368 -97.005)">
		<g id="Group_220" transform="translate(125.4 193.997)">
			<path id="Path_2801" class="st1" d="M29.3,6.1c0-1.3-1.1-2.4-2.4-2.4c-1.2,0-2.5,0-3.7,0c-0.6,0-1.2-0.2-1.7-0.7
				c-0.6-0.7-1.3-1.3-2-2c-0.6-0.7-1.5-1-2.4-1c-1.7,0-3.4,0-5,0c-0.9,0-1.8,0.3-2.4,1c-0.7,0.7-1.4,1.4-2,2c-0.4,0.4-1,0.6-1.5,0.6
				c-1.2,0-2.3,0-3.5,0C1.4,3.5,0.2,4.4,0,5.7c0,0,0,0,0,0v16.6c0,0.1,0.1,0.2,0.1,0.3c0.3,1,1.2,1.7,2.2,1.7c0.1,0,0.2,0,0.3,0
				c7.1,0,14.1,0,21.2,0c-0.2-0.1-0.4-0.2-0.5-0.4c-1.4-1.4-2.7-2.7-4.1-4.1c0,0-0.1-0.1-0.1-0.2c-0.5,0.3-1,0.5-1.4,0.7
				c-3.9,1.7-8.4-0.1-10.1-4c-1.7-3.9,0.1-8.4,4-10.1c2.1-0.9,4.6-0.8,6.6,0.3c1.2,0.6,2.1,1.5,2.9,2.6c1.6,2.4,1.6,5.5,0.1,8
				c-0.1,0.1-0.1,0.2,0,0.3c0,0,0,0,0,0c1.3,1.3,2.6,2.6,4,3.9c0.4,0.3,0.6,0.7,0.7,1.2v0.4c-0.1,0.4-0.2,0.7-0.5,0.9
				c-0.1,0.1-0.3,0.2-0.4,0.3h1.6c0.9,0.1,1.8-0.4,2.3-1.2c0.2-0.4,0.4-0.8,0.4-1.2C29.3,16.7,29.3,11.4,29.3,6.1z M24.4,9.7
				c-0.7,0-1.2-0.6-1.2-1.2c0-0.7,0.6-1.2,1.2-1.2c0.7,0,1.2,0.6,1.2,1.2C25.6,9.2,25,9.8,24.4,9.7L24.4,9.7z"/>
			<path id="Path_2802" class="st1" d="M14.7,8.1c-3,0-5.4,2.4-5.4,5.4s2.4,5.4,5.4,5.4c3,0,5.4-2.4,5.4-5.4
				C20.1,10.5,17.7,8.1,14.7,8.1z M14.9,17.6c-2.4,0-4.3-1.9-4.3-4.3c0-0.6,0.1-1.2,0.3-1.7c0,0.1,0,0.2,0,0.3c0,3,2.4,5.4,5.4,5.4
				c0,0,0,0,0,0h0.1C16,17.5,15.5,17.6,14.9,17.6L14.9,17.6z"/>
		</g>
	</g>
</g>
</svg>
