<svg xmlns="http://www.w3.org/2000/svg" width="57.435" height="14.574" viewBox="0 0 57.435 14.574">
  <g id="Layer_1" transform="translate(-8.379 -22.933)">
    <g id="Group_225" data-name="Group 225" transform="translate(8.379 22.933)">
      <path id="Path_2809" data-name="Path 2809" d="M41.951,28.5a3.507,3.507,0,0,0-2.38-2.045c-2.806-.745-6.364-.449-8.3,1.893a5.456,5.456,0,0,0-.95,5.436,3.567,3.567,0,0,0,2.608,2.038c2.357.312,5.4.441,7.292-1.285A5.744,5.744,0,0,0,41.951,28.5Zm-5.816,4.334a1.063,1.063,0,0,1-.935-.046c-.563-.312-.373-1-.312-1.467.266-.859.563-2.068,1.627-2.235a.877.877,0,0,1,.935.532,3.366,3.366,0,0,1-1.315,3.216Z" transform="translate(1.813 -21.439)" fill="#a8a8a8" fill-rule="evenodd"/>
      <path id="Path_2810" data-name="Path 2810" d="M20.788,22.933,18.8,28.681,17.3,22.933h-4L8.379,36.961h4.676l1.863-5.353,1.391,5.353h4.243l4.912-14.028Z" transform="translate(-8.379 -22.933)" fill="#a8a8a8" fill-rule="evenodd"/>
      <path id="Path_2811" data-name="Path 2811" d="M22.911,27.027a2.7,2.7,0,0,0,2.144-1.2,1.986,1.986,0,0,0-.19-2.007,2.938,2.938,0,0,0-2.456-.684,2.369,2.369,0,0,0-2.038,1.445,1.957,1.957,0,0,0,.266,1.7,2.7,2.7,0,0,0,2.273.753Z" transform="translate(-2.747 -22.845)" fill="#a8a8a8" fill-rule="evenodd"/>
      <path id="Path_2812" data-name="Path 2812" d="M20.764,26.413l-3.133,8.919h4.44L25.2,26.413Z" transform="translate(-4.006 -21.288)" fill="#a8a8a8" fill-rule="evenodd"/>
      <path id="Path_2813" data-name="Path 2813" d="M36.028,28.043H30.873L28.3,31.054l2.813-8.12H26.593L21.674,36.961H26.2l1.262-3.528.715,3.528H32.9l-.8-4.281,3.931-4.638Z" transform="translate(-2.095 -22.933)" fill="#a8a8a8" fill-rule="evenodd"/>
      <path id="Path_2814" data-name="Path 2814" d="M48.812,26.33A5.879,5.879,0,0,0,44.851,27.8h0l.517-1.346H40.692L37.56,35.371h4.676l1.505-4.281h0a1.262,1.262,0,0,1,1.308-.988c.677,0,.829.677.631,1.232h0L44.25,35.378h4.516l2.022-5.786h0c.555-1.6,0-3.262-1.977-3.262Z" transform="translate(5.414 -21.327)" fill="#a8a8a8" fill-rule="evenodd"/>
      <path id="Path_2815" data-name="Path 2815" d="M47.05,31.2a.931.931,0,1,0,.928.928.933.933,0,0,0-.928-.928Zm0,1.756a.821.821,0,1,1,.821-.821.828.828,0,0,1-.821.821Z" transform="translate(9.458 -19.026)" fill="#a8a8a8" fill-rule="evenodd"/>
      <path id="Path_2816" data-name="Path 2816" d="M47.338,31.759a.262.262,0,0,0-.114-.228.483.483,0,0,0-.251-.053h-.456v1.042h.129V32.04h.236l.3.479h.152l-.312-.479h0c.175-.008.319-.076.319-.281Zm-.509.182h-.2v-.373h.3c.129,0,.274.023.274.182.008.213-.22.19-.373.19Z" transform="translate(9.648 -18.894)" fill="#a8a8a8" fill-rule="evenodd"/>
    </g>
  </g>
</svg>
