<svg xmlns="http://www.w3.org/2000/svg" width="12.514" height="15" viewBox="0 0 12.514 15">
  <g id="user" transform="translate(0 0)">
    <path id="Path_3" data-name="Path 3" d="M90.645,7.226A3.5,3.5,0,0,0,93.2,6.167a3.5,3.5,0,0,0,1.058-2.554A3.5,3.5,0,0,0,93.2,1.058a3.612,3.612,0,0,0-5.109,0,3.5,3.5,0,0,0-1.058,2.554A3.5,3.5,0,0,0,88.09,6.167,3.5,3.5,0,0,0,90.645,7.226Zm0,0" transform="translate(-84.482)" fill="#b8b8b8"/>
    <path id="Path_4" data-name="Path 4" d="M12.484,251.6a8.923,8.923,0,0,0-.122-.948,7.468,7.468,0,0,0-.233-.953,4.708,4.708,0,0,0-.392-.889,3.355,3.355,0,0,0-.591-.77,2.6,2.6,0,0,0-.849-.533,2.933,2.933,0,0,0-1.083-.2,1.1,1.1,0,0,0-.587.249c-.176.115-.382.248-.612.394a3.505,3.505,0,0,1-.791.349,3.073,3.073,0,0,1-1.936,0,3.5,3.5,0,0,1-.791-.349c-.228-.145-.434-.278-.612-.395a1.1,1.1,0,0,0-.587-.249,2.928,2.928,0,0,0-1.083.2,2.6,2.6,0,0,0-.849.533,3.354,3.354,0,0,0-.591.77,4.716,4.716,0,0,0-.392.889,7.487,7.487,0,0,0-.233.953,8.891,8.891,0,0,0-.122.948c-.02.287-.03.585-.03.886a2.491,2.491,0,0,0,.74,1.884,2.663,2.663,0,0,0,1.906.7H9.868a2.663,2.663,0,0,0,1.906-.7,2.49,2.49,0,0,0,.74-1.884c0-.3-.01-.6-.03-.886Zm0,0" transform="translate(0 -240.071)" fill="#b8b8b8"/>
  </g>
</svg>
