<svg id="Group_226" data-name="Group 226" xmlns="http://www.w3.org/2000/svg" width="67.223" height="11.256" viewBox="0 0 67.223 11.256">
  <path id="Path_2817" data-name="Path 2817" d="M12.68,22.3l.033-.392h1.241v3.613H12.725c-.542-1.953-2.94-2.646-5.494-2.646-1.927,0-3.221.575-3.221,1.411,0,.738.986,1.078,2.561,1.32l3.168.49c3.364.523,5,1.176,5.037,3.293.033,1.986-2.378,3.384-5.906,3.384A12.9,12.9,0,0,1,3.8,31.836a.651.651,0,0,0-.986.627H1.482v-4.09h1.2c.523,2.11,3.044,2.992,5.932,2.992,2.11,0,3.24-.49,3.24-1.372,0-.817-.843-1.293-2.678-1.574L6.669,28.2c-3.528-.549-5.5-1.287-5.455-3.306.046-1.973,2.443-3.273,5.919-3.273a12.252,12.252,0,0,1,4.808.895C12.758,22.873,12.68,22.3,12.68,22.3Z" transform="translate(-1.214 -21.612)" fill="#a8a8a8"/>
  <path id="Path_2818" data-name="Path 2818" d="M16.084,27.232c0-2.8,1.718-4.364,4.508-4.364s4.481,1.561,4.481,4.364-1.7,4.383-4.481,4.383S16.084,30.041,16.084,27.232Zm-3.351,0c0,3.364,3.116,5.638,7.859,5.638s7.833-2.273,7.833-5.638-3.1-5.618-7.833-5.618S12.733,23.874,12.733,27.232Z" transform="translate(3.07 -21.614)" fill="#a8a8a8"/>
  <path id="Path_2819" data-name="Path 2819" d="M37.635,32.2l-8.068-7.055v4.952c0,.856.17.947,1.4.947h.751l-.046,1.117-6.33.046V31.042h.8c1.235,0,1.4-.091,1.4-.947V24.072c0-.856-.17-.947-1.4-.947h-.712V21.962h5.1l7.389,6.487V24.019c0-.856-.17-.947-1.4-.947H35.8V21.909l5.951.052v1.163h-.679c-1.235,0-1.235.091-1.235.947V32.2h-2.2Z" transform="translate(7.762 -21.504)" fill="#a8a8a8"/>
  <path id="Path_2820" data-name="Path 2820" d="M49.755,31.021h.268v1.163H42.954V31.021h.594c1.365,0,1.555-.091,1.555-.947V28.108L41.19,24.162A3.015,3.015,0,0,0,38.9,23.11h-.49V21.947h7.108V23.11h-.183c-.686,0-1.039.091-1.039.32,0,.137.118.307.333.5l2.665,2.8,2.829-2.894c.189-.17.307-.307.307-.457,0-.183-.307-.274-.849-.274h-.947V21.947H54.6V23.11H54.06a2.293,2.293,0,0,0-1.836.673l-4.05,4.331v1.966C48.174,30.93,48.383,31.021,49.755,31.021Z" transform="translate(12.621 -21.49)" fill="#a8a8a8"/>
</svg>
