<svg xmlns="http://www.w3.org/2000/svg" width="19.436" height="18.558" viewBox="0 0 19.436 18.558">
  <path id="Path_2803" data-name="Path 2803" d="M10.488,23.562a2.557,2.557,0,0,1-4.86-1.149c-.009-1.69,0-3.377,0-5.067,0-.792-.009-1.583,0-2.375a2.537,2.537,0,0,1,2.683-2.565,2.465,2.465,0,0,1,2.1,1.3c.037.063.072.132.121.225.167-.1.325-.2.481-.3a11.24,11.24,0,0,0,3.052-2.695A4.3,4.3,0,0,0,15,8.531c.006-.158-.014-.317,0-.475A1.741,1.741,0,0,1,17.32,6.541a3.6,3.6,0,0,1,2.531,4.224c-.173.846-.34,1.7-.515,2.577H19.6c.844,0,1.69,0,2.534,0a2.877,2.877,0,0,1,2.819,3.691q-.639,2.375-1.293,4.75a4.307,4.307,0,0,1-4.235,3.233q-3.213.013-6.426-.006a1.154,1.154,0,0,1-.587-.181C11.764,24.426,11.136,23.994,10.488,23.562Zm5.937.092c.988,0,1.975,0,2.963,0a2.949,2.949,0,0,0,2.954-2.237q.652-2.336,1.278-4.684a1.531,1.531,0,0,0-1.569-2.03c-1.154,0-2.306,0-3.461,0a.693.693,0,0,1-.743-.9c.155-.774.322-1.549.466-2.326a9.3,9.3,0,0,0,.23-1.581A2.059,2.059,0,0,0,16.811,7.86c-.32-.04-.4.029-.429.357-.023.294-.029.587-.069.878a6.076,6.076,0,0,1-1.391,2.948,13.734,13.734,0,0,1-4.008,3.23.3.3,0,0,0-.181.3q.009,3.166,0,6.334a.307.307,0,0,0,.155.294c.679.446,1.353.9,2.035,1.347a.672.672,0,0,0,.354.107C14.329,23.657,15.377,23.654,16.425,23.654ZM9.377,18.691V15.052a1.89,1.89,0,0,0-.026-.383,1.194,1.194,0,0,0-2.358.311q-.009,3.7.006,7.39a1.479,1.479,0,0,0,.184.685,1.147,1.147,0,0,0,1.327.521,1.167,1.167,0,0,0,.867-1.134C9.38,21.193,9.377,19.94,9.377,18.691Z" transform="translate(-5.623 -6.463)" fill="#fff"/>
</svg>
